<mxfile host="app.diagrams.net" modified="2023-03-31T19:19:51.546Z" agent="Mozilla/5.0 (X11; Linux x86_64; rv:109.0) Gecko/20100101 Firefox/109.0" etag="TTSbY98UtRBu6UGuWHg3" version="21.1.2" type="github">
  <diagram id="R2lEEEUBdFMjLlhIrx00" name="Page-1">
    <mxGraphModel dx="1050" dy="468" grid="1" gridSize="10" guides="1" tooltips="1" connect="1" arrows="1" fold="1" page="1" pageScale="1" pageWidth="850" pageHeight="1100" math="0" shadow="0" extFonts="Permanent Marker^https://fonts.googleapis.com/css?family=Permanent+Marker">
      <root>
        <mxCell id="0" />
        <mxCell id="1" parent="0" />
        <mxCell id="-seJrs4ZA7TQt1ZbyauL-2" value="&lt;font style=&quot;font-size: 17px;&quot;&gt;Film&lt;/font&gt;" style="rounded=1;arcSize=10;whiteSpace=wrap;html=1;align=center;" vertex="1" parent="1">
          <mxGeometry x="500" y="170" width="120" height="50" as="geometry" />
        </mxCell>
        <mxCell id="-seJrs4ZA7TQt1ZbyauL-3" value="&lt;font style=&quot;font-size: 16px;&quot;&gt;Director&lt;/font&gt;" style="rounded=1;arcSize=10;whiteSpace=wrap;html=1;align=center;" vertex="1" parent="1">
          <mxGeometry x="270" y="170" width="120" height="50" as="geometry" />
        </mxCell>
        <mxCell id="-seJrs4ZA7TQt1ZbyauL-4" value="&lt;font style=&quot;font-size: 17px;&quot;&gt;Actors&lt;/font&gt;" style="rounded=1;arcSize=10;whiteSpace=wrap;html=1;align=center;" vertex="1" parent="1">
          <mxGeometry x="275" y="70" width="120" height="50" as="geometry" />
        </mxCell>
        <mxCell id="-seJrs4ZA7TQt1ZbyauL-5" value="&lt;font style=&quot;font-size: 16px;&quot;&gt;Genre&lt;/font&gt;" style="rounded=1;arcSize=10;whiteSpace=wrap;html=1;align=center;" vertex="1" parent="1">
          <mxGeometry x="275" y="270" width="130" height="50" as="geometry" />
        </mxCell>
        <mxCell id="-seJrs4ZA7TQt1ZbyauL-6" value="&lt;font style=&quot;font-size: 14px;&quot;&gt;Watched films&lt;br&gt;&lt;/font&gt;" style="rounded=1;arcSize=10;whiteSpace=wrap;html=1;align=center;" vertex="1" parent="1">
          <mxGeometry x="510" y="280" width="120" height="50" as="geometry" />
        </mxCell>
        <mxCell id="-seJrs4ZA7TQt1ZbyauL-10" value="" style="edgeStyle=entityRelationEdgeStyle;fontSize=12;html=1;endArrow=ERoneToMany;startArrow=ERoneToMany;rounded=0;entryX=1;entryY=0.25;entryDx=0;entryDy=0;exitX=0;exitY=0.25;exitDx=0;exitDy=0;" edge="1" parent="1" source="-seJrs4ZA7TQt1ZbyauL-2" target="-seJrs4ZA7TQt1ZbyauL-4">
          <mxGeometry width="100" height="100" relative="1" as="geometry">
            <mxPoint x="550" y="160" as="sourcePoint" />
            <mxPoint x="590" y="35" as="targetPoint" />
          </mxGeometry>
        </mxCell>
        <mxCell id="-seJrs4ZA7TQt1ZbyauL-11" value="" style="edgeStyle=entityRelationEdgeStyle;fontSize=12;html=1;endArrow=ERoneToMany;startArrow=ERmandOne;rounded=0;exitX=1;exitY=0.5;exitDx=0;exitDy=0;entryX=0;entryY=0.5;entryDx=0;entryDy=0;" edge="1" parent="1" source="-seJrs4ZA7TQt1ZbyauL-3" target="-seJrs4ZA7TQt1ZbyauL-2">
          <mxGeometry width="100" height="100" relative="1" as="geometry">
            <mxPoint x="300" y="210" as="sourcePoint" />
            <mxPoint x="400" y="110" as="targetPoint" />
          </mxGeometry>
        </mxCell>
        <mxCell id="-seJrs4ZA7TQt1ZbyauL-16" value="" style="edgeStyle=entityRelationEdgeStyle;fontSize=12;html=1;endArrow=ERoneToMany;startArrow=ERoneToMany;rounded=0;exitX=0.962;exitY=0.6;exitDx=0;exitDy=0;exitPerimeter=0;" edge="1" parent="1" source="-seJrs4ZA7TQt1ZbyauL-5">
          <mxGeometry width="100" height="100" relative="1" as="geometry">
            <mxPoint x="410" y="300" as="sourcePoint" />
            <mxPoint x="500" y="210" as="targetPoint" />
          </mxGeometry>
        </mxCell>
        <mxCell id="-seJrs4ZA7TQt1ZbyauL-17" value="" style="fontSize=12;html=1;endArrow=ERmandOne;startArrow=ERmandOne;rounded=0;entryX=0.567;entryY=1.06;entryDx=0;entryDy=0;entryPerimeter=0;exitX=0.5;exitY=0;exitDx=0;exitDy=0;" edge="1" parent="1" source="-seJrs4ZA7TQt1ZbyauL-6" target="-seJrs4ZA7TQt1ZbyauL-2">
          <mxGeometry width="100" height="100" relative="1" as="geometry">
            <mxPoint x="480" y="330" as="sourcePoint" />
            <mxPoint x="580" y="230" as="targetPoint" />
          </mxGeometry>
        </mxCell>
      </root>
    </mxGraphModel>
  </diagram>
</mxfile>
